:SAMPLES-PER-SECOND 25
:FULLY-SPECIFIED
:DEGREES
344
root  12.7855 38.2396 -80.1642 175.016 31.3461 173.679
RightUpLeg  -5.8011 1.33908 -6.93838
RightLeg  57.105 2.20284 3.24286
RightFoot  -2.32813 0.38144 -4.97366
RightToes  2.84633e-005 7.89722e-005 -0.000426369
Spine  0.9779 0.281759 -2.32002
Spine1  1.62559 -0.177298 -1.43508
HEad  38.9154 -9.05746 0.171226
LeftShoulder1  -3.88251e-019 0 -3.92111e-022
LeftArm  -36.6199 11.4156 -79.389
LeftForeArm  27.0431 2.06882 1.99951
LeftHand  -0.670604 -3.38454 9.13553
RightShoulder  7.45443e-017 -2.42657e-020 1.96277e-018
RightArm  -15.287 -25.2154 60.9302
RightForeArm  21.1896 13.0685 9.71035
RightHand  -2.18259 14.5851 -13.0532
LeftUpLeg  -17.3674 5.78142 -3.92409
LeftLeg  25.3288 -3.27251 -1.33943
LeftFoot  -6.9979 0.0323668 0.332831
LeftToes  3.91355e-005 3.11907e-005 -4.10385e-006
345
root  12.9597 38.5808 -80.8923 176.03 32.7078 174.706
RightUpLeg  -11.3791 -1.57035 -4.86977
RightLeg  59.9047 2.24475 3.71899
RightFoot  -5.78775 0.0851322 -2.59951
RightToes  2.84633e-005 7.89722e-005 -0.000426369
Spine  1.17558 -0.49886 -2.10248
Spine1  2.03525 -1.67072 -0.442397
HEad  37.0176 -9.41186 -0.696605
LeftShoulder1  -3.88251e-019 0 -3.92111e-022
LeftArm  -35.9314 11.1118 -81.9079
LeftForeArm  25.3586 2.14849 1.02853
LeftHand  -0.925223 -4.62827 10.9639
RightShoulder  7.45443e-017 -2.42657e-020 1.96277e-018
RightArm  -17.058 -23.5571 63.5569
RightForeArm  19.9529 12.2966 10.2168
RightHand  -2.50189 13.8201 -15.4136
LeftUpLeg  -15.4427 4.80006 -3.11773
LeftLeg  23.1055 -1.35229 -0.288038
LeftFoot  -7.23658 0.0481957 0.150207
LeftToes  3.91355e-005 3.11907e-005 -4.10385e-006
346
root  13.1556 38.7691 -81.6308 177.393 34.5769 176.193
RightUpLeg  -16.3118 -3.18885 -1.843
RightLeg  58.5074 1.88649 2.86718
RightFoot  -10.2172 -0.072273 0.31141
RightToes  2.84633e-005 7.89722e-005 -0.000426369
Spine  1.31111 -1.20251 -1.53755
Spine1  2.37441 -2.88206 0.770552
HEad  35.1504 -10.128 -0.987755
LeftShoulder1  -3.88251e-019 0 -3.92111e-022
LeftArm  -35.2396 9.09207 -83.77
LeftForeArm  27.3073 2.12872 0.738313
LeftHand  -0.854457 -5.4168 9.4756
RightShoulder  7.45443e-017 -2.42657e-020 1.96277e-018
RightArm  -17.1928 -22.9462 65.3005
RightForeArm  19.4854 12.5182 10.059
RightHand  -2.33613 13.5141 -14.6509
LeftUpLeg  -14.2254 4.99538 -1.99107
LeftLeg  22.2535 0.389564 0.521733
LeftFoot  -8.3362 0.0551751 0.0606361
LeftToes  3.91355e-005 3.11907e-005 -4.10385e-006
347
root  13.3156 38.9753 -82.3648 179.141 37.1238 178.235
RightUpLeg  -19.6767 -4.57256 1.32214
RightLeg  51.551 -0.494401 -0.974516
RightFoot  -13.0256 -0.085024 0.251194
RightToes  2.84633e-005 7.89722e-005 -0.000426369
Spine  1.2842 -1.82932 -0.535224
Spine1  2.4206 -3.86497 2.1957
HEad  33.6875 -10.4049 -1.5035
LeftShoulder1  -3.88251e-019 0 -3.92111e-022
LeftArm  -34.1731 6.51668 -84.7188
LeftForeArm  31.3206 2.05526 0.552882
LeftHand  -0.840032 -5.37683 9.35407
RightShoulder  7.45443e-017 -2.42657e-020 1.96277e-018
RightArm  -19.0048 -22.2698 66.0917
RightForeArm  21.9122 11.052 10.5239
RightHand  -2.12056 13.7789 -13.1739
LeftUpLeg  -13.1055 5.62311 -0.450749
LeftLeg  21.6173 2.24896 1.31767
LeftFoot  -9.27754 0.0555949 0.000184708
LeftToes  3.91355e-005 3.11907e-005 -4.10385e-006
348
root  13.4829 39.274 -82.9593 -179.393 39.6346 179.578
RightUpLeg  -20.3255 -8.36112 3.71876
RightLeg  37.9753 -6.1017 -5.35086
RightFoot  -12.4074 -0.0920263 -0.718594
RightToes  2.84633e-005 7.89722e-005 -0.000426369
Spine  1.32488 -2.49728 0.513856
Spine1  2.58344 -4.99333 3.0207
HEad  31.9926 -11.3688 -1.39003
LeftShoulder1  -3.88251e-019 0 -3.92111e-022
LeftArm  -32.9145 3.29415 -85.0748
LeftForeArm  38.8511 1.83434 0.87245
LeftHand  -0.8472 -5.35988 9.44329
RightShoulder  7.45443e-017 -2.42657e-020 1.96277e-018
RightArm  -20.7294 -21.8012 67.033
RightForeArm  23.3331 10.3383 10.3997
RightHand  -1.91574 13.1026 -12.3742
LeftUpLeg  -11.521 6.14185 0.5928
LeftLeg  19.6185 3.59187 1.69672
LeftFoot  -8.95911 0.0590091 -0.261139
LeftToes  3.91355e-005 3.11907e-005 -4.10385e-006
349
root  13.7731 39.5027 -83.5833 -179.186 42.5623 179.389
RightUpLeg  -17.5686 -12.2598 4.60481
RightLeg  20.583 -14.8336 -5.11966
RightFoot  -7.49248 -0.0557105 -0.390072
RightToes  2.84633e-005 7.89722e-005 -0.000426369
Spine  1.30781 -2.94678 1.2472
Spine1  2.56835 -5.88986 2.61384
HEad  30.6675 -12.8592 -0.626739
LeftShoulder1  -3.88251e-019 0 -3.92111e-022
LeftArm  -32.5437 0.171569 -84.9227
LeftForeArm  44.5567 1.53871 2.58668
LeftHand  -1.0069 -5.33614 11.1721
RightShoulder  7.45443e-017 -2.42657e-020 1.96277e-018
RightArm  -24.2999 -21.5996 67.9679
RightForeArm  25.2291 8.28152 9.90575
RightHand  -2.14979 13.0805 -13.7988
LeftUpLeg  -9.84359 6.4957 0.584801
LeftLeg  18.44 4.52821 2.04723
LeftFoot  -8.2714 0.0853959 -1.2583
LeftToes  3.91355e-005 3.11907e-005 -4.10385e-006
350
root  14.1007 39.4771 -84.3356 -179.357 47.6873 178.777
RightUpLeg  -16.7388 -9.27784 4.20499
RightLeg  14.9653 -21.0113 -4.26802
RightFoot  -2.48758 0.498731 -6.40139
RightToes  2.84633e-005 7.89722e-005 -0.000426369
Spine  0.953349 -2.59169 1.04925
Spine1  1.87247 -5.18279 1.94417
HEad  30.5376 -13.8599 -0.856883
LeftShoulder1  -3.88251e-019 0 -3.92111e-022
LeftArm  -32.9088 -1.09223 -84.9621
LeftForeArm  45.5013 1.43355 5.36387
LeftHand  -1.10796 -4.64128 13.0772
RightShoulder  7.45443e-017 -2.42657e-020 1.96277e-018
RightArm  -27.3046 -22.3937 69.3815
RightForeArm  26.6267 6.60408 8.58256
RightHand  -2.16068 12.9944 -13.9588
LeftUpLeg  -6.68855 6.29199 -0.433896
LeftLeg  15.6048 11.7906 3.27093
LeftFoot  -10.5388 0.0775425 -1.72604
LeftToes  3.91355e-005 3.11907e-005 -4.10385e-006
